# xmcd
#
# Track frame offsets: 
#        150
#        15281
#        27696
#        41749
#        49414
#        56680
#        65349
#        77403
#        87596
#        99250
#        106159
#        118570
#        129607
#        141586
#        150244
#        162153
#        174728
#        184937
#        198452
#
# Disc length: 2828 seconds
#
# Revision: 2
# Processed by: cddbd v1.5.1PL2 Copyright (c) Steve Scherf et al.
# Submitted via: ExactAudioCopy v0.95b4
#
DISCID=020b0a13
DTITLE=Livie Karlù and Pepela - Propast u nohou
DYEAR=2002
DGENRE=Country
TTITLE0=Na scestí
TTITLE1=Tak ses rozhodl
TTITLE2=Podej mi dlaò
TTITLE3=Tenhleten kámen
TTITLE4=S tebou
TTITLE5=Kùzi na zem dej
TTITLE6=Tichej tón
TTITLE7=Vùz èíslo 6
TTITLE8=Poutník
TTITLE9=Summertime
TTITLE10=Komodor Jahelka
TTITLE11=Jako v tunelu vlak
TTITLE12=Zivot
TTITLE13=Dvacet let
TTITLE14=Jak vìøit mám
TTITLE15=Ty jsi skvìlej
TTITLE16=Zavøi víèka
TTITLE17=Zas me zlákás
TTITLE18=Dotekem zkoumám
EXTD=YEAR: 2002
EXTT0=
EXTT1=
EXTT2=
EXTT3=
EXTT4=
EXTT5=
EXTT6=
EXTT7=
EXTT8=
EXTT9=
EXTT10=
EXTT11=
EXTT12=
EXTT13=
EXTT14=
EXTT15=
EXTT16=
EXTT17=
EXTT18=
PLAYORDER=
